<svg width="32" height="32" viewBox="0 0 32 32" fill="none" xmlns="http://www.w3.org/2000/svg">
  <defs>
    <!-- Gradient definition matching VaultX branding -->
    <linearGradient id="vaultx-gradient" x1="0%" y1="0%" x2="100%" y2="100%">
      <stop offset="0%" style="stop-color:#8B5CF6;stop-opacity:1" />
      <stop offset="50%" style="stop-color:#A855F7;stop-opacity:1" />
      <stop offset="100%" style="stop-color:#06B6D4;stop-opacity:1" />
    </linearGradient>
    
    <!-- Background circle gradient -->
    <radialGradient id="bg-gradient" cx="50%" cy="50%" r="50%">
      <stop offset="0%" style="stop-color:#1E293B;stop-opacity:1" />
      <stop offset="100%" style="stop-color:#0F172A;stop-opacity:1" />
    </radialGradient>
  </defs>
  
  <!-- Background circle -->
  <circle cx="16" cy="16" r="16" fill="url(#bg-gradient)" />
  
  <!-- Shield icon with VaultX gradient -->
  <path d="M16 4L12 6V12C12 16.5 14.5 20.26 18 21.22C21.5 20.26 24 16.5 24 12V6L20 4L16 4Z" fill="url(#vaultx-gradient)" />
  
  <!-- Inner shield detail -->
  <path d="M16 6L13.5 7.5V12C13.5 15.5 15.2 18.4 17.5 19.1C19.8 18.4 21.5 15.5 21.5 12V7.5L19 6L16 6Z" fill="white" fill-opacity="0.2" />
  
  <!-- VaultX "V" symbol -->
  <path d="M14 10L16 15L18 10" stroke="white" stroke-width="1.5" stroke-linecap="round" stroke-linejoin="round" fill="none" />
</svg>