<svg width="16" height="16" viewBox="0 0 16 16" fill="none" xmlns="http://www.w3.org/2000/svg">
  <defs>
    <!-- Gradient definition matching VaultX branding -->
    <linearGradient id="favicon-gradient" x1="0%" y1="0%" x2="100%" y2="100%">
      <stop offset="0%" style="stop-color:#8B5CF6;stop-opacity:1" />
      <stop offset="100%" style="stop-color:#06B6D4;stop-opacity:1" />
    </linearGradient>
    
    <!-- Background -->
    <radialGradient id="favicon-bg" cx="50%" cy="50%" r="60%">
      <stop offset="0%" style="stop-color:#1E293B;stop-opacity:1" />
      <stop offset="100%" style="stop-color:#0F172A;stop-opacity:1" />
    </radialGradient>
  </defs>
  
  <!-- Background -->
  <rect width="16" height="16" rx="3" fill="url(#favicon-bg)" />
  
  <!-- Shield shape -->
  <path d="M8 2L5.5 3V7.5C5.5 10.5 6.8 12.8 8.5 13.5C10.2 12.8 11.5 10.5 11.5 7.5V3L9 2H8Z" fill="url(#favicon-gradient)" />
  
  <!-- Highlight -->
  <path d="M8 3L6.5 3.8V7.5C6.5 9.8 7.4 11.4 8.3 11.8C9.2 11.4 10.1 9.8 10.1 7.5V3.8L8.7 3H8Z" fill="white" fill-opacity="0.15" />
  
  <!-- "V" symbol -->
  <path d="M7.2 5.5L8 8.5L8.8 5.5" stroke="white" stroke-width="0.8" stroke-linecap="round" fill="none" />
</svg>