<svg width="512" height="512" viewBox="0 0 512 512" fill="none" xmlns="http://www.w3.org/2000/svg">
  <defs>
    <!-- VaultX gradient -->
    <linearGradient id="icon-512-gradient" x1="0%" y1="0%" x2="100%" y2="100%">
      <stop offset="0%" style="stop-color:#8B5CF6;stop-opacity:1" />
      <stop offset="25%" style="stop-color:#A855F7;stop-opacity:1" />
      <stop offset="75%" style="stop-color:#EC4899;stop-opacity:1" />
      <stop offset="100%" style="stop-color:#06B6D4;stop-opacity:1" />
    </linearGradient>
    
    <!-- Background -->
    <radialGradient id="icon-512-bg" cx="50%" cy="40%" r="70%">
      <stop offset="0%" style="stop-color:#1E293B;stop-opacity:1" />
      <stop offset="100%" style="stop-color:#0F172A;stop-opacity:1" />
    </radialGradient>
    
    <!-- Glow -->
    <radialGradient id="icon-512-glow" cx="50%" cy="50%" r="60%">
      <stop offset="0%" style="stop-color:#8B5CF6;stop-opacity:0.2" />
      <stop offset="100%" style="stop-color:#8B5CF6;stop-opacity:0" />
    </radialGradient>
  </defs>
  
  <!-- Background -->
  <rect width="512" height="512" rx="64" fill="url(#icon-512-bg)" />
  
  <!-- Glow effect -->
  <circle cx="256" cy="256" r="200" fill="url(#icon-512-glow)" />
  
  <!-- Main shield -->
  <path d="M256 100L180 130V256C180 360 220 440 256 470C292 440 332 360 332 256V130L256 100Z" fill="url(#icon-512-gradient)" />
  
  <!-- Inner shield -->
  <path d="M256 130L200 150V256C200 340 230 400 256 425C282 400 312 340 312 256V150L256 130Z" fill="white" fill-opacity="0.1" />
  
  <!-- VaultX "V" symbol -->
  <path d="M220 200L256 300L292 200" stroke="white" stroke-width="16" stroke-linecap="round" stroke-linejoin="round" fill="none" />
  
  <!-- Secondary "V" for depth -->
  <path d="M230 210L256 280L282 210" stroke="white" stroke-width="8" stroke-linecap="round" stroke-linejoin="round" fill="none" opacity="0.6" />
</svg>